# File created by Blade
# Date/Time:  Thu Jan 15 17:55:17 2015
#---------------------------------------------------------
:version 1.10
:name HOM
:units
  mass 1.0
  length 1.000000
  angle deg
:documentation
     Acclaim Skeleton File
:root
   axis xyz
   order TX TY TZ RX RY RZ
   position 0.000000 0.000000 0.000000
   orientation 0 0 0
:bonedata
   begin
      id 1
      name Spine_dum
      direction 0.000000 1.000000 0.000000
      length 5.015652
      axis 0.0 0.0 0.0 xyz
   end
   begin
      id 2
      name LeftUpLeg_dum
      direction 1.000000 0.000000 0.000000
      length 4.275145
      axis 0.0 0.0 0.0 xyz
   end
   begin
      id 3
      name RightUpLeg_dum
      direction -1.000000 0.000000 0.000000
      length 4.275145
      axis 0.0 0.0 0.0 xyz
   end
   begin
      id 4
      name Spine
      direction 0.000000 1.000000 0.000000
      length 0.000000
      axis 0.0 0.0 0.0 xyz
      dof rx ry rz
   end
   begin
      id 5
      name Spine_dum1
      direction 0.000000 1.000000 0.000000
      length 15.980521
      axis 0.0 0.0 0.0 xyz
   end
   begin
      id 6
      name Spine_dum2
      direction 0.000000 1.000000 0.000000
      length 12.162712
      axis 0.0 0.0 0.0 xyz
   end
   begin
      id 7
      name Spine_dum3
      direction 0.000000 1.000000 0.000000
      length 12.162712
      axis 0.0 0.0 0.0 xyz
   end
   begin
      id 8
      name Head
      direction 0.000000 1.000000 0.000000
      length 4.527550
      axis 0.0 0.0 0.0 xyz
      dof rx ry rz
   end
   begin
      id 9
      name LeftShoulder
      direction 1.000000 0.000000 0.000000
      length 7.205867
      axis 0.0 0.0 -90.0 xyz
      dof rx ry rz
   end
   begin
      id 10
      name LeftArm
      direction 1.000000 0.000000 0.000000
      length 10.786708
      axis 0.0 0.0 -90.0 xyz
      dof rx ry rz
   end
   begin
      id 11
      name LeftForeArm
      direction 1.000000 0.000000 0.000000
      length 7.946034
      axis 0.0 0.0 -90.0 xyz
      dof rz ry rx
   end
   begin
      id 12
      name LeftHand
      direction 0.000000 0.000000 0.000000
      length 0.000000
      axis 0.0 0.0 -90.0 xyz
      dof rx ry rz
   end
   begin
      id 13
      name LeftHand_dum1
      direction 0.000000 0.000000 0.000000
      length 0.000000
      axis 0.0 0.0 -90.0 xyz
   end
   begin
      id 14
      name LeftHand_dum2
      direction 1.000000 0.000000 0.000000
      length 3.937000
      axis 0.0 0.0 -90.0 xyz
   end
   begin
      id 15
      name LeftHandThumb1
      direction 0.000000 0.000000 1.000000
      length 3.937000
      axis 0.0 0.0 -90.0 xyz
      dof rx ry rz
   end
   begin
      id 16
      name RightShoulder
      direction -1.000000 0.000000 0.000000
      length 7.205867
      axis 0.0 0.0 90.0 xyz
      dof rx ry rz
   end
   begin
      id 17
      name RightArm
      direction -1.000000 0.000000 0.000000
      length 10.786708
      axis 0.0 0.0 90.0 xyz
      dof rx ry rz
   end
   begin
      id 18
      name RightForeArm
      direction -1.000000 0.000000 0.000000
      length 7.946034
      axis 0.0 0.0 90.0 xyz
      dof rz ry rx
   end
   begin
      id 19
      name RightHand
      direction 0.000000 0.000000 0.000000
      length 0.000000
      axis 0.0 0.0 90.0 xyz
      dof rx ry rz
   end
   begin
      id 20
      name RightHand_dum1
      direction 0.000000 0.000000 0.000000
      length 0.000000
      axis 0.0 0.0 90.0 xyz
   end
   begin
      id 21
      name RightHand_dum2
      direction -1.000000 0.000000 0.000000
      length 3.937000
      axis 0.0 0.0 90.0 xyz
   end
   begin
      id 22
      name RightHandThumb1
      direction 0.000000 0.000000 1.000000
      length 3.937000
      axis 0.0 0.0 90.0 xyz
      dof rx ry rz
   end
   begin
      id 23
      name LeftUpLeg
      direction 0.000000 -1.000000 0.000000
      length 17.046659
      axis 0.0 0.0 0.0 xyz
      dof rx ry rz
   end
   begin
      id 24
      name LeftLeg
      direction 0.000000 -1.000000 0.000000
      length 17.458438
      axis 0.0 0.0 0.0 xyz
      dof rx ry rz
   end
   begin
      id 25
      name LeftFoot
      direction 0.000000 -0.258819 0.965926
      length 5.099406
      axis 15.0 0.0 0.0 xyz
      dof rx ry rz
   end
   begin
      id 26
      name LeftToeBase
      direction 0.000000 0.000000 1.000000
      length 2.952750
      axis 0.0 0.0 0.0 xyz
      dof rx ry rz
   end
   begin
      id 27
      name RightUpLeg
      direction 0.000000 -1.000000 0.000000
      length 17.046659
      axis 0.0 0.0 0.0 xyz
      dof rx ry rz
   end
   begin
      id 28
      name RightLeg
      direction 0.000000 -1.000000 0.000000
      length 17.458438
      axis 0.0 0.0 0.0 xyz
      dof rx ry rz
   end
   begin
      id 29
      name RightFoot
      direction 0.000000 -0.258819 0.965926
      length 5.099406
      axis 15.0 0.0 0.0 xyz
      dof rx ry rz
   end
   begin
      id 30
      name RightToeBase
      direction 0.000000 0.000000 1.000000
      length 2.952750
      axis 0.0 0.0 0.0 xyz
      dof rx ry rz
   end
:hierarchy
   begin
      root Spine_dum LeftUpLeg_dum RightUpLeg_dum
      Spine_dum Spine
      LeftUpLeg_dum LeftUpLeg
      RightUpLeg_dum RightUpLeg
      Spine Spine_dum1 Spine_dum2 Spine_dum3
      Spine_dum1 Head
      Spine_dum2 LeftShoulder
      Spine_dum3 RightShoulder
      LeftShoulder LeftArm
      LeftArm LeftForeArm
      LeftForeArm LeftHand
      LeftHand LeftHand_dum1 LeftHand_dum2
      LeftHand_dum1 LeftHandThumb1
      RightShoulder RightArm
      RightArm RightForeArm
      RightForeArm RightHand
      RightHand RightHand_dum1 RightHand_dum2
      RightHand_dum1 RightHandThumb1
      LeftUpLeg LeftLeg
      LeftLeg LeftFoot
      LeftFoot LeftToeBase
      RightUpLeg RightLeg
      RightLeg RightFoot
      RightFoot RightToeBase
   end

# File created by Blade
# Date/Time:  Thu Jan 15 17:55:09 2015
# Frame Rate: 120.000 fps
#------------------------------------------------------
:FULLY-SPECIFIED
:DEGREES
1253
root 6.480406 35.445938 -16.090644 21.348924 3.266539 -0.211107
Spine 9.964862 -17.010624 -2.062070
Head -20.634417 14.187407 15.857995
LeftShoulder -28.042098 -1.699505 13.999560
LeftArm 30.766507 -25.425644 -45.173754
LeftForeArm -0.000000 16.144148 13.757970
LeftHand 5.764149 -0.000000 14.891782
LeftHandThumb1 -26.253704 33.147579 0.000000
RightShoulder 4.351099 23.026427 -11.998228
RightArm 12.750473 32.173209 41.861961
RightForeArm 0.000000 -41.910497 35.726890
RightHand -0.794412 -0.000000 -18.753753
RightHandThumb1 -24.326973 -32.862282 -0.000000
LeftUpLeg -25.525477 4.786506 7.311404
LeftLeg -0.072954 -0.000000 0.000000
LeftFoot -13.503821 9.688270 -17.331512
LeftToeBase 28.126275 -0.000000 -0.000000
RightUpLeg -23.377078 -13.069240 0.594720
RightLeg -4.216468 -0.000000 0.000000
RightFoot -13.241023 -34.409516 10.059122
RightToeBase 18.147197 -0.000000 -0.000000
1254
root 6.477331 35.429954 -16.313626 21.731013 3.170349 -0.247431
Spine 11.321456 -16.927912 -2.406392
Head -21.355362 14.446734 15.814135
LeftShoulder -27.600481 -1.788922 14.095398
LeftArm 31.730471 -24.921016 -45.297586
LeftForeArm -0.000000 16.044732 13.500639
LeftHand 5.894287 -0.000000 15.271504
LeftHandThumb1 -26.253704 33.147579 0.000000
RightShoulder 4.958044 23.431707 -12.059392
RightArm 13.709828 31.897068 42.875750
RightForeArm -0.000000 -41.962736 35.887590
RightHand -1.070362 -0.000000 -19.754700
RightHandThumb1 -24.326973 -32.862282 -0.000000
LeftUpLeg -26.244473 4.881656 7.291494
LeftLeg -0.082091 -0.000000 0.000000
LeftFoot -13.186329 9.809536 -17.254602
LeftToeBase 28.126449 -0.000000 -0.000000
RightUpLeg -24.074619 -12.792522 0.670160
RightLeg -4.305153 -0.000000 0.000000
RightFoot -12.999250 -34.498378 10.019983
RightToeBase 17.460715 -0.000000 -0.000000
1255
root 6.475658 35.412214 -16.537026 22.157416 3.055517 -0.290771
Spine 12.638731 -16.821735 -2.735312
Head -22.059479 14.732812 15.756734
LeftShoulder -27.141478 -1.948037 14.224648
LeftArm 32.627935 -24.481115 -45.442111
LeftForeArm -0.000000 16.059047 13.360454
LeftHand 5.839163 -0.000000 15.532292
LeftHandThumb1 -26.253704 33.147579 0.000000
RightShoulder 5.586028 23.930876 -12.134514
RightArm 14.621465 31.634087 43.862155
RightForeArm 0.000000 -41.981296 36.001052
RightHand -0.863193 -0.000000 -20.483476
RightHandThumb1 -24.326973 -32.862282 -0.000000
LeftUpLeg -27.003972 5.029769 7.247125
LeftLeg -0.093142 -0.000000 0.000000
LeftFoot -12.883817 9.921173 -17.153075
LeftToeBase 28.147097 -0.000000 -0.000000
RightUpLeg -24.820251 -12.503400 0.746738
RightLeg -4.401494 -0.000000 0.000000
RightFoot -12.765167 -34.625114 10.013725
RightToeBase 16.965959 -0.000000 -0.000000
1256
root 6.477634 35.393662 -16.759045 22.632108 2.918258 -0.321911
Spine 13.893791 -16.655447 -3.056787
Head -22.713506 14.970017 15.695366
LeftShoulder -26.623301 -2.100657 14.356327
LeftArm 33.629951 -24.218620 -45.691165
LeftForeArm 0.000000 16.401166 13.106903
LeftHand 5.802371 -0.000000 15.461245
LeftHandThumb1 -26.253704 33.147579 0.000000
RightShoulder 6.211928 24.587689 -12.144578
RightArm 15.463736 31.274714 44.698005
RightForeArm -0.000000 -42.031127 36.047957
RightHand -0.702259 -0.000000 -20.929515
RightHandThumb1 -24.326973 -32.862282 -0.000000
LeftUpLeg -27.795314 5.170696 7.185081
LeftLeg -0.122979 -0.000000 0.000000
LeftFoot -12.539863 10.058817 -17.014962
LeftToeBase 28.095306 -0.000000 -0.000000
RightUpLeg -25.628816 -12.227939 0.818814
RightLeg -4.474323 -0.000000 0.000000
RightFoot -12.575938 -34.731984 10.041007
RightToeBase 16.621516 -0.000000 -0.000000
1257
root 6.476132 35.373486 -16.980239 23.111001 2.776587 -0.357223
Spine 15.143987 -16.501633 -3.390590
Head -23.291883 15.245259 15.639856
LeftShoulder -26.136555 -2.396461 14.510609
LeftArm 34.581550 -23.744129 -45.706440
LeftForeArm -0.000000 16.304104 12.700353
LeftHand 6.020606 0.000000 15.385117
LeftHandThumb1 -26.253704 33.147579 0.000000
RightShoulder 6.886702 25.366636 -12.192701
RightArm 16.230248 31.134517 45.716985
RightForeArm -0.000000 -42.251563 36.184480
RightHand -0.642656 -0.000000 -21.312650
RightHandThumb1 -24.326973 -32.862282 -0.000000
LeftUpLeg -28.585363 5.299815 7.141783
LeftLeg -0.161155 -0.000000 0.000000
LeftFoot -12.252104 10.223695 -16.965574
LeftToeBase 28.199574 -0.000000 -0.000000
RightUpLeg -26.425247 -11.946875 0.891208
RightLeg -4.574121 -0.000000 0.000000
RightFoot -12.371338 -34.822530 10.063689
RightToeBase 16.164542 -0.000000 -0.000000
1258
root 6.476755 35.350933 -17.199883 23.590224 2.650116 -0.380899
Spine 16.393805 -16.374625 -3.725490
Head -23.809957 15.462413 15.578369
LeftShoulder -25.634498 -2.682431 14.598320
LeftArm 35.448495 -23.023317 -45.385899
LeftForeArm -0.000000 16.239630 12.356252
LeftHand 5.874764 -0.000000 15.575923
LeftHandThumb1 -26.253704 33.147579 0.000000
RightShoulder 7.577756 26.128542 -12.234282
RightArm 17.088959 31.044378 46.780533
RightForeArm -0.000000 -42.407110 36.318329
RightHand -0.893830 -0.000000 -21.203787
RightHandThumb1 -24.326973 -32.862282 -0.000000
LeftUpLeg -29.371610 5.428751 7.082644
LeftLeg -0.208570 -0.000000 0.000000
LeftFoot -11.938121 10.337478 -16.871315
LeftToeBase 28.273421 -0.000000 -0.000000
RightUpLeg -27.202909 -11.696233 0.947819
RightLeg -4.706195 -0.000000 0.000000
RightFoot -12.118941 -34.934233 10.053840
RightToeBase 15.622363 -0.000000 -0.000000
1259
root 6.473605 35.326732 -17.417210 24.142001 2.506333 -0.429161
Spine 17.518030 -16.173018 -4.019436
Head -24.203173 15.596745 15.541230
LeftShoulder -25.097277 -2.942343 14.612244
LeftArm 36.531940 -22.463061 -45.070725
LeftForeArm 0.000000 16.381888 11.825492
LeftHand 5.954610 -0.000000 15.582560
LeftHandThumb1 -26.253704 33.147579 0.000000
RightShoulder 8.226798 26.810828 -12.226119
RightArm 18.051240 30.890665 47.791193
RightForeArm -0.000000 -42.566955 36.297585
RightHand -0.644010 -0.000000 -21.583486
RightHandThumb1 -24.326973 -32.862282 -0.000000
LeftUpLeg -30.212695 5.579893 7.044750
LeftLeg -0.271494 -0.000000 0.000000
LeftFoot -11.639432 10.479017 -16.750202
LeftToeBase 28.289773 -0.000000 -0.000000
RightUpLeg -28.041805 -11.424694 1.040347
RightLeg -4.865913 -0.000000 0.000000
RightFoot -11.849089 -35.045525 10.041071
RightToeBase 15.234270 -0.000000 -0.000000
1260
root 6.472229 35.300756 -17.632801 24.639794 2.352280 -0.468322
Spine 18.712212 -15.971930 -4.364243
Head -24.524871 15.760641 15.558256
LeftShoulder -24.621435 -3.155742 14.621349
LeftArm 37.770229 -21.922474 -44.782715
LeftForeArm -0.000000 16.485836 11.247607
LeftHand 5.800855 -0.000000 15.726240
LeftHandThumb1 -26.253704 33.147579 0.000000
RightShoulder 8.894425 27.570222 -12.190674
RightArm 19.032375 30.804496 48.913092
RightForeArm -0.000000 -42.988963 36.380549
RightHand -0.994265 -0.000000 -21.629534
RightHandThumb1 -24.326973 -32.862282 -0.000000
LeftUpLeg -31.007834 5.713075 7.008492
LeftLeg -0.303070 -0.000000 0.000000
LeftFoot -11.334287 10.616328 -16.617153
LeftToeBase 28.227017 -0.000000 -0.000000
RightUpLeg -28.812855 -11.140732 1.096594
RightLeg -5.039156 -0.000000 0.000000
RightFoot -11.608721 -35.158398 10.048189
RightToeBase 14.623095 -0.000000 -0.000000
1261
root 6.468339 35.273620 -17.845248 25.172366 2.222969 -0.518034
Spine 19.870284 -15.765664 -4.686260
Head -24.826606 15.865559 15.601816
LeftShoulder -24.196267 -3.422093 14.632410
LeftArm 39.122810 -21.451915 -44.568229
LeftForeArm -0.000000 16.768680 10.639402
LeftHand 5.724877 -0.000000 15.654546
LeftHandThumb1 -26.253704 33.147579 0.000000
RightShoulder 9.489301 28.385361 -12.149534
RightArm 20.057297 30.691124 50.120585
RightForeArm -0.000000 -43.188510 36.365423
RightHand -0.906140 -0.000000 -21.962839
RightHandThumb1 -24.326973 -32.862282 -0.000000
LeftUpLeg -31.828821 5.828416 6.992732
LeftLeg -0.359650 -0.000000 0.000000
LeftFoot -11.089586 10.803706 -16.556977
LeftToeBase 28.351326 -0.000000 -0.000000
RightUpLeg -29.593519 -10.844353 1.149299
RightLeg -5.206024 -0.000000 0.000000
RightFoot -11.411288 -35.218009 10.023197
RightToeBase 14.485194 -0.000000 -0.000000
1262
root 6.465194 35.245355 -18.055016 25.744038 2.110150 -0.570997
Spine 20.998501 -15.596234 -4.999501
Head -25.107590 16.013336 15.653915
LeftShoulder -23.845349 -3.624380 14.590768
LeftArm 40.570558 -20.912254 -44.240418
LeftForeArm -0.000000 17.018322 10.024743
LeftHand 5.603629 -0.000000 15.656093
LeftHandThumb1 -26.253704 33.147579 0.000000
RightShoulder 10.082104 29.155930 -12.030851
RightArm 21.195879 30.566441 51.299604
RightForeArm -0.000000 -43.343074 36.425841
RightHand -0.921915 -0.000000 -21.787923
RightHandThumb1 -24.326973 -32.862282 -0.000000
LeftUpLeg -32.690428 5.939163 6.986556
LeftLeg -0.404058 -0.000000 0.000000
LeftFoot -10.816078 10.945285 -16.397605
LeftToeBase 28.422549 -0.000000 -0.000000
RightUpLeg -30.395524 -10.587530 1.224835
RightLeg -5.413526 -0.000000 0.000000
RightFoot -11.202579 -35.263590 10.034927
RightToeBase 14.050941 -0.000000 -0.000000
1263
root 6.460680 35.215323 -18.259010 26.316245 1.988414 -0.627851
Spine 22.103286 -15.401519 -5.313169
Head -25.341601 16.073597 15.722212
LeftShoulder -23.449849 -3.841357 14.662081
LeftArm 41.925862 -20.416995 -44.043483
LeftForeArm -0.000000 17.364917 9.479154
LeftHand 5.442645 -0.000000 15.720288
LeftHandThumb1 -26.253704 33.147579 0.000000
RightShoulder 10.695466 30.011147 -11.915457
RightArm 22.176650 30.278002 52.461315
RightForeArm -0.000000 -43.251022 36.630806
RightHand -1.485968 -0.000000 -21.781063
RightHandThumb1 -24.326973 -32.862282 -0.000000
LeftUpLeg -33.515597 6.013991 7.015766
LeftLeg -0.484857 -0.000000 0.000000
LeftFoot -10.552726 11.137542 -16.279993
LeftToeBase 28.413613 -0.000000 -0.000000
RightUpLeg -31.172735 -10.290162 1.272537
RightLeg -5.637256 -0.000000 0.000000
RightFoot -10.987334 -35.353294 10.011220
RightToeBase 13.552006 -0.000000 -0.000000
1264
root 6.455940 35.186376 -18.459855 26.937632 1.882928 -0.677346
Spine 23.136632 -15.199747 -5.584786
Head -25.539902 16.117246 15.737083
LeftShoulder -23.068523 -4.206681 14.710078
LeftArm 43.293480 -19.817902 -43.743301
LeftForeArm -0.000000 17.808243 8.837464
LeftHand 5.484252 -0.000000 15.554276
LeftHandThumb1 -26.253704 33.147579 0.000000
RightShoulder 11.266783 30.796897 -11.863917
RightArm 23.250183 30.143330 53.808463
RightForeArm 0.000000 -43.138275 36.912848
RightHand -1.849551 -0.000000 -21.456897
RightHandThumb1 -24.326973 -32.862282 -0.000000
LeftUpLeg -34.403829 6.115902 7.017061
LeftLeg -0.550207 -0.000000 0.000000
LeftFoot -10.318864 11.302118 -16.268576
LeftToeBase 28.537897 -0.000000 -0.000000
RightUpLeg -32.007528 -10.069760 1.368664
RightLeg -5.859248 -0.000000 0.000000
RightFoot -10.768338 -35.433876 10.022331
RightToeBase 13.099443 -0.000000 -0.000000
